# Alias OBJ Model File
# Exported from SketchUp, (c) 2000-2012 Trimble Navigation Limited
# File units = millimeters

mtllib volumenkoerper2.mtl

g Mesh1 R_ckseite_1_1 Model

usemtl FrontColor
v 57.6 -2.42346e-15 -1.5
vt 0 0
vn 1 0 -1.73518e-12
v 57.6 44.45 -1.5
vt 0 1.75
v 57.6 44.45 -9.99509e-11
vt -0.0590551 1.75
v 57.6 -2.42346e-15 -9.99509e-11
vt -0.0590551 0
f 1/1/1 2/2/1 3/3/1 4/4/1 

vn -1.73518e-12 0 -1
v 56.1 1.5 -1.5
vt 0.0590551 0.0590551
f 1/1/2 5/5/2 2/2/2

v -2.54925e-12 3.13079e-31 -1.5
vt 2.26772 9.54117e-17
f 5/5/2 1/1/2 6/6/2

vt -2.26772 0
vn -4.20739e-17 -1 7.30059e-29
vt 0 0.0590551
v 5.63993e-14 3.13079e-31 -4.4062e-15
vt -2.26772 0.0590551
f 6/7/3 1/1/3 4/8/3 7/9/3 

vn 1.73518e-12 0 1
v 48.7688 7.5 -8.46496e-11
vt -0.347687 0.295276
vt -2.26772 9.54117e-17
f 4/1/4 8/10/4 7/11/4

f 8/10/4 4/1/4 3/2/4

v 48.7688 36.95 -8.46496e-11
vt -0.347687 1.45472
f 8/10/4 3/2/4 9/12/4

v 46.1063 36.95 -8.00298e-11
vt -0.45251 1.45472
f 9/12/4 3/2/4 10/13/4

v 43.4438 36.95 -7.53421e-11
vt -0.557333 1.45472
f 10/13/4 3/2/4 11/14/4

v 40.7813 36.95 -7.07221e-11
vt -0.662156 1.45472
f 11/14/4 3/2/4 12/15/4

v 38.1188 36.95 -6.617e-11
vt -0.766978 1.45472
f 12/15/4 3/2/4 13/16/4

v 35.4563 36.95 -6.155e-11
vt -0.871801 1.45472
f 13/16/4 3/2/4 14/17/4

v 32.7938 36.95 -5.69527e-11
vt -0.976624 1.45472
f 14/17/4 3/2/4 15/18/4

v 30.1313 36.95 -5.23328e-11
vt -1.08145 1.45472
f 15/18/4 3/2/4 16/19/4

v 27.4688 36.95 -4.76902e-11
vt -1.18627 1.45472
f 16/19/4 3/2/4 17/20/4

v 24.8063 36.95 -4.30704e-11
vt -1.29109 1.45472
f 17/20/4 3/2/4 18/21/4

v 22.1438 36.95 -3.84279e-11
vt -1.39592 1.45472
f 18/21/4 3/2/4 19/22/4

v 19.4813 36.95 -3.38079e-11
vt -1.50074 1.45472
f 19/22/4 3/2/4 20/23/4

v 16.8188 36.95 -2.91655e-11
vt -1.60556 1.45472
f 20/23/4 3/2/4 21/24/4

v 14.1563 36.95 -2.45455e-11
vt -1.71038 1.45472
f 21/24/4 3/2/4 22/25/4

v 11.4938 36.95 -1.99257e-11
vt -1.81521 1.45472
f 22/25/4 3/2/4 23/26/4

v 8.83125 36.95 -1.53057e-11
vt -1.92003 1.45472
f 23/26/4 3/2/4 24/27/4

v 5.63993e-14 44.45 -4.4062e-15
vt -2.26772 1.75
f 25/28/4 24/27/4 3/2/4

v 8.83125 7.5 -1.53057e-11
vt -1.92003 0.295276
f 25/28/4 26/29/4 24/27/4

f 7/11/4 26/29/4 25/28/4

v 30.1313 7.5 -5.23328e-11
vt -1.08145 0.295276
f 26/29/4 7/11/4 27/30/4

f 27/30/4 7/11/4 8/10/4

v 46.1063 7.5 -8.00298e-11
vt -0.45251 0.295276
f 27/30/4 8/10/4 28/31/4

v 48.7687 7.5 -1.5
vt 0.347687 0
vn 0 1 -0
v 46.1062 7.5 -1.5
vt 0.45251 0
vt 0.45251 0.0590551
vt 0.347687 0.0590551
f 29/32/5 30/33/5 28/34/5 8/35/5 

vt 0.347687 0.295276
v 43.4437 7.5 -1.5
vt 0.557333 0.295276
vt 0.45251 0.295276
f 29/36/2 31/37/2 30/38/2

v 40.7812 7.5 -1.5
vt 0.662156 0.295276
f 29/36/2 32/39/2 31/37/2

v 38.1187 7.5 -1.5
vt 0.766978 0.295276
f 29/36/2 33/40/2 32/39/2

v 35.4562 7.5 -1.5
vt 0.871801 0.295276
f 29/36/2 34/41/2 33/40/2

v 32.7937 7.5 -1.5
vt 0.976624 0.295276
f 29/36/2 35/42/2 34/41/2

v 30.1312 7.5 -1.5
vt 1.08145 0.295276
f 29/36/2 36/43/2 35/42/2

v 3 3 -1.5
vt 2.14961 0.11811
f 29/36/2 37/44/2 36/43/2

v 54.6 3 -1.5
vt 0.11811 0.11811
f 29/36/2 38/45/2 37/44/2

v 54.6 41.45 -1.5
vt 0.11811 1.63189
f 38/45/2 29/36/2 39/46/2

v 48.7687 36.95 -1.5
vt 0.347687 1.45472
f 39/46/2 29/36/2 40/47/2

vt 0 1.45472
vn -1 0 1.73518e-12
vt 0 0.295276
vt 0.0590551 0.295276
vt 0.0590551 1.45472
f 40/48/6 29/49/6 8/50/6 9/51/6 

v 46.1062 36.95 -1.5
vt -0.45251 0
vn 0 -1 0
vt -0.347687 0
vt -0.347687 0.0590551
vt -0.45251 0.0590551
f 41/52/7 40/53/7 9/54/7 10/55/7 

vt 0.45251 1.45472
v 3 41.45 -1.5
vt 2.14961 1.63189
f 41/56/2 42/57/2 40/47/2

v 43.4437 36.95 -1.5
vt 0.557333 1.45472
f 43/58/2 42/57/2 41/56/2

v 40.7812 36.95 -1.5
vt 0.662156 1.45472
f 44/59/2 42/57/2 43/58/2

v 38.1187 36.95 -1.5
vt 0.766978 1.45472
f 45/60/2 42/57/2 44/59/2

v 35.4562 36.95 -1.5
vt 0.871801 1.45472
f 46/61/2 42/57/2 45/60/2

v 32.7937 36.95 -1.5
vt 0.976624 1.45472
f 47/62/2 42/57/2 46/61/2

v 30.1312 36.95 -1.5
vt 1.08145 1.45472
f 48/63/2 42/57/2 47/62/2

v 27.4687 36.95 -1.5
vt 1.18627 1.45472
f 49/64/2 42/57/2 48/63/2

v 24.8062 36.95 -1.5
vt 1.29109 1.45472
f 50/65/2 42/57/2 49/64/2

v 22.1437 36.95 -1.5
vt 1.39592 1.45472
f 51/66/2 42/57/2 50/65/2

v 19.4812 36.95 -1.5
vt 1.50074 1.45472
f 52/67/2 42/57/2 51/66/2

v 16.8187 36.95 -1.5
vt 1.60556 1.45472
f 53/68/2 42/57/2 52/67/2

v 14.1562 36.95 -1.5
vt 1.71038 1.45472
f 54/69/2 42/57/2 53/68/2

v 11.4937 36.95 -1.5
vt 1.81521 1.45472
f 55/70/2 42/57/2 54/69/2

v 8.83125 36.95 -1.5
vt 1.92003 1.45472
f 56/71/2 42/57/2 55/70/2

v 8.83125 7.5 -1.5
vt 1.92003 0.295276
f 57/72/2 42/57/2 56/71/2

f 57/72/2 37/44/2 42/57/2

f 37/44/2 57/72/2 36/43/2

v 27.4687 7.5 -1.5
vt 1.18627 0.295276
f 36/43/2 57/72/2 58/73/2

v 24.8062 7.5 -1.5
vt 1.29109 0.295276
f 57/72/2 59/74/2 58/73/2

v 11.4937 7.5 -1.5
vt 1.81521 0.295276
f 59/74/2 57/72/2 60/75/2

vt 1.81521 0
vt 1.92003 0
vt 1.92003 0.0590551
v 11.4938 7.5 -1.99257e-11
vt 1.81521 0.0590551
f 60/76/5 57/77/5 26/78/5 61/79/5 

vt -0.0590551 1.45472
vt -0.0590551 0.295276
f 57/49/1 56/48/1 24/80/1 26/81/1 

vt -1.92003 0
vt -1.81521 0
vt -1.81521 0.0590551
vt -1.92003 0.0590551
f 56/82/7 55/83/7 23/84/7 24/85/7 

f 55/48/6 60/49/6 61/50/6 23/51/6 

v 14.1562 7.5 -1.5
vt 1.71038 0.295276
f 60/75/2 55/70/2 54/69/2 62/86/2 

v 14.1563 7.5 -2.45455e-11
f 62/49/1 54/48/1 22/80/1 63/81/1 

vt -1.71038 0
vt -1.60556 0
vt -1.60556 0.0590551
vt -1.71038 0.0590551
f 54/87/7 53/88/7 21/89/7 22/90/7 

v 16.8187 7.5 -1.5
v 16.8188 7.5 -2.91655e-11
f 53/48/6 64/49/6 65/50/6 21/51/6 

v 19.4812 7.5 -1.5
vt 1.50074 0.295276
vt 1.60556 0.295276
f 53/68/2 52/67/2 66/91/2 64/92/2 

v 19.4813 7.5 -3.38079e-11
f 66/49/1 52/48/1 20/80/1 67/81/1 

vt -1.50074 0
vt -1.39592 0
vt -1.39592 0.0590551
vt -1.50074 0.0590551
f 52/93/7 51/94/7 19/95/7 20/96/7 

v 22.1437 7.5 -1.5
v 22.1438 7.5 -3.84279e-11
f 51/48/6 68/49/6 69/50/6 19/51/6 

vt 1.39592 0.295276
f 59/74/2 68/97/2 51/66/2 50/65/2 

f 59/74/2 66/91/2 68/97/2

f 59/74/2 64/92/2 66/91/2

f 59/74/2 62/86/2 64/92/2

f 59/74/2 60/75/2 62/86/2

vt 1.60556 0
vt 1.71038 0
vt 1.71038 0.0590551
vt 1.60556 0.0590551
f 64/98/5 62/99/5 63/100/5 65/101/5 

vt -1.60556 0.295276
vt -1.71038 0.295276
f 26/29/4 65/102/4 63/103/4

vt -1.50074 0.295276
f 26/29/4 67/104/4 65/102/4

vt -1.39592 0.295276
f 26/29/4 69/105/4 67/104/4

v 24.8063 7.5 -4.30704e-11
vt -1.29109 0.295276
f 26/29/4 70/106/4 69/105/4

v 27.4688 7.5 -4.76902e-11
vt -1.18627 0.295276
f 26/29/4 71/107/4 70/106/4

f 26/29/4 27/30/4 71/107/4

f 16/19/4 71/107/4 27/30/4

f 71/107/4 16/19/4 17/20/4

f 49/48/6 58/49/6 71/50/6 17/51/6 

f 36/43/2 58/73/2 49/64/2 48/63/2 

f 36/49/1 48/48/1 16/80/1 27/81/1 

vt -1.08145 0
vt -0.976624 0
vt -0.976624 0.0590551
vt -1.08145 0.0590551
f 48/108/7 47/109/7 15/110/7 16/111/7 

v 32.7938 7.5 -5.69527e-11
f 47/48/6 35/49/6 72/50/6 15/51/6 

f 46/61/2 34/41/2 35/42/2 47/62/2 

v 35.4563 7.5 -6.155e-11
f 34/49/1 46/48/1 14/80/1 73/81/1 

vt -0.871801 0
vt -0.766978 0
vt -0.766978 0.0590551
vt -0.871801 0.0590551
f 46/112/7 45/113/7 13/114/7 14/115/7 

v 38.1188 7.5 -6.617e-11
f 45/48/6 33/49/6 74/50/6 13/51/6 

f 45/60/2 44/59/2 32/39/2 33/40/2 

v 40.7813 7.5 -7.07221e-11
f 32/49/1 44/48/1 12/80/1 75/81/1 

vt -0.662156 0
vt -0.557333 0
vt -0.557333 0.0590551
vt -0.662156 0.0590551
f 44/116/7 43/117/7 11/118/7 12/119/7 

v 43.4438 7.5 -7.53421e-11
f 43/48/6 31/49/6 76/50/6 11/51/6 

f 41/56/2 30/38/2 31/37/2 43/58/2 

f 30/49/1 41/48/1 10/80/1 28/81/1 

vt -0.557333 0.295276
f 10/13/4 76/120/4 28/31/4

f 76/120/4 10/13/4 11/14/4

f 27/30/4 28/31/4 76/120/4

vt -0.662156 0.295276
f 27/30/4 76/120/4 75/121/4

vt 0.557333 0
vt 0.662156 0
vt 0.662156 0.0590551
vt 0.557333 0.0590551
f 31/122/5 32/123/5 75/124/5 76/125/5 

vt -0.766978 0.295276
f 27/30/4 75/121/4 74/126/4

f 12/15/4 74/126/4 75/121/4

f 74/126/4 12/15/4 13/16/4

vt -0.871801 0.295276
f 27/30/4 74/126/4 73/127/4

vt 0.766978 0
vt 0.871801 0
vt 0.871801 0.0590551
vt 0.766978 0.0590551
f 33/128/5 34/129/5 73/130/5 74/131/5 

vt -0.976624 0.295276
f 27/30/4 73/127/4 72/132/4

f 14/17/4 72/132/4 73/127/4

f 72/132/4 14/17/4 15/18/4

vt 0.976624 0
vt 1.08145 0
vt 1.08145 0.0590551
vt 0.976624 0.0590551
f 35/133/5 36/134/5 27/135/5 72/136/5 

vt 1.18627 0
vn 5.29571e-16 1 -9.18902e-28
vt 1.29109 0
vt 1.29109 0.0590551
vt 1.18627 0.0590551
f 58/137/8 59/138/8 70/139/8 71/140/8 

f 59/49/1 50/48/1 18/80/1 70/81/1 

vt -1.29109 0
vt -1.18627 0
vt -1.18627 0.0590551
vt -1.29109 0.0590551
f 50/141/7 49/142/7 17/143/7 18/144/7 

f 18/21/4 69/105/4 70/106/4

f 69/105/4 18/21/4 19/22/4

vt 1.39592 0
vt 1.50074 0
vt 1.50074 0.0590551
vt 1.39592 0.0590551
f 68/145/5 66/146/5 67/147/5 69/148/5 

f 20/23/4 65/102/4 67/104/4

f 65/102/4 20/23/4 21/24/4

vt -1.81521 0.295276
f 26/29/4 63/103/4 61/149/4

f 22/25/4 61/149/4 63/103/4

f 61/149/4 22/25/4 23/26/4

vt 0 1.63189
vt 0 0.11811
v 3 3 -3
vt 0.0590551 0.11811
v 3 41.45 -3
vt 0.0590551 1.63189
f 42/150/1 37/151/1 77/152/1 78/153/1 

vt 2.14961 0
vn 4.09879e-17 1 -7.11214e-29
vt 0.11811 0
v 54.6 3 -3
vt 0.11811 -0.0590551
vt 2.14961 -0.0590551
f 37/154/9 38/155/9 79/156/9 77/157/9 

v 54.6 41.45 -3
vt -0.0590551 1.63189
vt -0.0590551 0.11811
f 38/151/6 39/150/6 80/158/6 79/159/6 

vt -0.11811 0
vt -2.14961 0
vt -2.14961 -0.0590551
vt -0.11811 -0.0590551
f 39/160/7 42/161/7 78/162/7 80/163/7 

f 39/46/2 40/47/2 42/57/2

v 1.5 42.95 -3
vt 2.20866 1.69094
f 78/57/2 81/164/2 80/46/2

f 77/44/2 81/164/2 78/57/2

v 1.5 1.5 -3
vt 2.20866 0.0590551
f 77/44/2 82/165/2 81/164/2

f 82/165/2 77/44/2 79/45/2

v 56.1 1.5 -3
f 79/45/2 83/5/2 82/165/2

v 56.1 42.95 -3
vt 0.0590551 1.69094
f 83/5/2 79/45/2 84/166/2

f 84/166/2 79/45/2 80/46/2

f 84/166/2 80/46/2 81/164/2

v 1.5 42.95 -1.5
vt 2.20866 0
v 56.1 42.95 -1.5
vt 0.0590551 0
vt 0.0590551 -0.0590551
vt 2.20866 -0.0590551
f 85/167/5 86/168/5 84/169/5 81/170/5 

v -2.54925e-12 44.45 -1.5
vt 2.26772 1.75
f 85/164/2 87/171/2 86/166/2

v 1.5 1.5 -1.5
f 88/165/2 87/171/2 85/164/2

f 88/165/2 6/6/2 87/171/2

f 6/6/2 88/165/2 5/5/2

vn -4.19638e-17 -1 7.28148e-29
vt -2.20866 0
vt -2.20866 -0.0590551
vt -0.0590551 -0.0590551
f 5/4/10 88/172/10 82/173/10 83/174/10 

vt 0 1.69094
vt -0.0590551 1.69094
vt -0.0590551 0.0590551
f 88/8/6 85/175/6 81/176/6 82/177/6 

f 86/175/1 5/8/1 83/5/1 84/166/1 

f 2/2/2 5/5/2 86/166/2

f 2/2/2 86/166/2 87/171/2

vt 2.26772 0
vt 2.26772 0.0590551
f 2/1/5 87/178/5 25/179/5 3/8/5 

vt 0 9.54117e-17
vt 0.0590551 9.54117e-17
vt 0.0590551 1.75
f 87/2/6 6/180/6 7/181/6 25/182/6 

